<svg xmlns="http://www.w3.org/2000/svg" width="24" height="24" viewBox="0 0 24 24">
  <g id="icon_03" data-name="icon 03" transform="translate(-0.469 -8.094)">
    <g id="frame" transform="translate(0 7.519)">
      <rect id="사각형_82" data-name="사각형 82" width="24" height="24" transform="translate(0.469 0.575)" fill="none"/>
    </g>
    <g id="그룹_18610" data-name="그룹 18610" transform="translate(1.286 7.67)">
      <g id="그룹_18603" data-name="그룹 18603" transform="translate(3.183 3.424)">
        <g id="그룹_18458" data-name="그룹 18458">
          <g id="그룹_18453" data-name="그룹 18453">
            <path id="패스_7674" data-name="패스 7674" d="M667.606,583.5l-1.3-11.473a.318.318,0,0,0-.33-.26h-2.718v-.33a3.957,3.957,0,0,0-7.836,0v.33h-2.718a.318.318,0,0,0-.33.26l-1.3,11.473a1.962,1.962,0,0,0,.623,1.638,2.634,2.634,0,0,0,1.814.7h11.65a2.633,2.633,0,0,0,1.814-.7A1.962,1.962,0,0,0,667.606,583.5Zm-11.517-12.063a3.067,3.067,0,0,1,3.254-2.828h0a3.067,3.067,0,0,1,3.254,2.828v.33h-6.508Zm10.4,13.313a1.92,1.92,0,0,1-1.323.509h-11.65a1.92,1.92,0,0,1-1.323-.509,1.43,1.43,0,0,1-.454-1.194l1.267-11.212h2.417v1.4a.335.335,0,0,0,.664,0v-1.4H662.6v1.4a.335.335,0,0,0,.664,0v-1.4h2.417l1.267,11.212A1.43,1.43,0,0,1,666.491,584.747Z" transform="translate(-651.069 -568.029)" fill="#20345f" stroke="#20345f" stroke-width="0.4"/>
          </g>
        </g>
      </g>
    </g>
  </g>
</svg>
