<svg xmlns="http://www.w3.org/2000/svg" width="123.324" height="18.41" viewBox="0 0 123.324 18.41">
  <g id="그룹_465853" data-name="그룹 465853" transform="translate(-120.414 -244.243)">
    <path id="패스_842396" data-name="패스 842396" d="M396.307,263.16a2.776,2.776,0,0,0,1.638.31h.444v-18.2h-2.772v16.575A1.492,1.492,0,0,0,396.307,263.16Z" transform="translate(-219.76 -0.818)" fill="#20345f"/>
    <path id="패스_842397" data-name="패스 842397" d="M592.174,245.267l-6.1,18.2h1.975a1.29,1.29,0,0,0,1.175-.975l1.3-4.065h6.612l.024.043,1.4,4.022a1.191,1.191,0,0,0,1.118.976h2.157l-6.317-18.2Zm1.616,2.969,2.551,7.731h-5.03Z" transform="translate(-371.846 -0.818)" fill="#20345f"/>
    <path id="패스_842398" data-name="패스 842398" d="M233.3,255.228h6.426a1.294,1.294,0,0,0,1.147-.613,2.537,2.537,0,0,0,.266-1.45v-.39H233.3v-5.049h6.973a1.271,1.271,0,0,0,1.138-.609,2.575,2.575,0,0,0,.266-1.459v-.39H230.6v18.2h10.059a1.3,1.3,0,0,0,1.148-.613,2.546,2.546,0,0,0,.266-1.454v-.39l-8.763,0Z" transform="translate(-87.984 -0.818)" fill="#20345f"/>
    <path id="패스_842399" data-name="패스 842399" d="M521.989,255.228h6.417a1.294,1.294,0,0,0,1.147-.613,2.537,2.537,0,0,0,.266-1.45v-.39h-7.83v-5.049h6.964a1.294,1.294,0,0,0,1.147-.613,2.545,2.545,0,0,0,.266-1.454v-.39H519.28v18.2h9.808a1.294,1.294,0,0,0,1.148-.613,2.693,2.693,0,0,0,.256-1.454v-.39l-8.5,0Z" transform="translate(-318.51 -0.818)" fill="#20345f"/>
    <path id="패스_842400" data-name="패스 842400" d="M680.332,244.243h-2.709v18.41h9.655a1.277,1.277,0,0,0,1.147-.644,2.817,2.817,0,0,0,.266-1.535v-.413h-8.359Z" transform="translate(-444.953 0)" fill="#20345f"/>
    <path id="패스_842401" data-name="패스 842401" d="M434,245.267h-2.709v16.575a1.517,1.517,0,0,0,.672,1.323,2.733,2.733,0,0,0,1.6.306H434v-8.243h7.821v6.614a1.492,1.492,0,0,0,.69,1.318,2.813,2.813,0,0,0,1.638.31h.444v-18.2h-2.772v7.48H434Z" transform="translate(-248.249 -0.818)" fill="#20345f"/>
    <path id="패스_842402" data-name="패스 842402" d="M312.294,245.289h-6.623v18.2H312.2a7.146,7.146,0,0,0,6.917-4.117,12.046,12.046,0,0,0,1.1-5.22,9.666,9.666,0,0,0-1.857-6.108A7.444,7.444,0,0,0,312.294,245.289Zm4.952,11.17h0a7.071,7.071,0,0,1-1.016,2.672,4.146,4.146,0,0,1-2.358,1.588,7.322,7.322,0,0,1-2.1.32h-3.336v-13.3h3.373a5.077,5.077,0,0,1,4.318,1.907,8.129,8.129,0,0,1,1.291,4.918A11.683,11.683,0,0,1,317.246,256.459Z" transform="translate(-147.935 -0.835)" fill="#20345f"/>
    <path id="패스_842403" data-name="패스 842403" d="M129.255,257.045l6.087-11.778h2.846v18.2H137.7a2.755,2.755,0,0,1-1.613-.306,1.5,1.5,0,0,1-.689-1.322V250.783l-4.321,8.3a2.177,2.177,0,0,1-1.842,1.1,2.1,2.1,0,0,1-1.8-1.1l-4.185-8.032-.136-.252v12.68h-.431a2.654,2.654,0,0,1-1.584-.306,1.513,1.513,0,0,1-.68-1.323V245.267h2.723Z" transform="translate(0 -0.818)" fill="#20345f"/>
  </g>
</svg>
